<svg version="1.1" xmlns="http://www.w3.org/2000/svg" viewBox="0 0 61.34799331329623 61.34799331329623" width="61.34799331329623" height="61.34799331329623">
  <!-- svg-source:excalidraw -->
  
  <defs>
    <style class="style-fonts">
      
    </style>
    
  </defs>
  <rect x="0" y="0" width="61.34799331329623" height="61.34799331329623" fill="#ffffff"></rect><g stroke-linecap="round" transform="translate(10 10) rotate(0 20.673996656648114 20.673996656648114)"><path d="M10.34 0 C18.58 0, 26.83 0, 31.01 0 M10.34 0 C14.7 0, 19.07 0, 31.01 0 M31.01 0 C37.9 0, 41.35 3.45, 41.35 10.34 M31.01 0 C37.9 0, 41.35 3.45, 41.35 10.34 M41.35 10.34 C41.35 17.25, 41.35 24.17, 41.35 31.01 M41.35 10.34 C41.35 16.88, 41.35 23.42, 41.35 31.01 M41.35 31.01 C41.35 37.9, 37.9 41.35, 31.01 41.35 M41.35 31.01 C41.35 37.9, 37.9 41.35, 31.01 41.35 M31.01 41.35 C26.29 41.35, 21.57 41.35, 10.34 41.35 M31.01 41.35 C25.16 41.35, 19.31 41.35, 10.34 41.35 M10.34 41.35 C3.45 41.35, 0 37.9, 0 31.01 M10.34 41.35 C3.45 41.35, 0 37.9, 0 31.01 M0 31.01 C0 24.23, 0 17.45, 0 10.34 M0 31.01 C0 25.33, 0 19.66, 0 10.34 M0 10.34 C0 3.45, 3.45 0, 10.34 0 M0 10.34 C0 3.45, 3.45 0, 10.34 0" stroke="#000000" stroke-width="1" fill="none"></path></g><g stroke-linecap="round" transform="translate(26.51512983140674 27.0763477723267) rotate(0 3.5762276221914817 3.576227622191368)"><path d="M7.15 3.58 C7.15 3.78, 7.13 3.99, 7.1 4.2 C7.06 4.4, 7.01 4.6, 6.94 4.8 C6.87 4.99, 6.78 5.19, 6.67 5.36 C6.57 5.54, 6.45 5.72, 6.32 5.87 C6.18 6.03, 6.03 6.18, 5.87 6.32 C5.72 6.45, 5.54 6.57, 5.36 6.67 C5.19 6.78, 4.99 6.87, 4.8 6.94 C4.6 7.01, 4.4 7.06, 4.2 7.1 C3.99 7.13, 3.78 7.15, 3.58 7.15 C3.37 7.15, 3.16 7.13, 2.96 7.1 C2.75 7.06, 2.55 7.01, 2.35 6.94 C2.16 6.87, 1.97 6.78, 1.79 6.67 C1.61 6.57, 1.44 6.45, 1.28 6.32 C1.12 6.18, 0.97 6.03, 0.84 5.87 C0.7 5.72, 0.58 5.54, 0.48 5.36 C0.38 5.19, 0.29 4.99, 0.22 4.8 C0.14 4.6, 0.09 4.4, 0.05 4.2 C0.02 3.99, 0 3.78, 0 3.58 C0 3.37, 0.02 3.16, 0.05 2.96 C0.09 2.75, 0.14 2.55, 0.22 2.35 C0.29 2.16, 0.38 1.97, 0.48 1.79 C0.58 1.61, 0.7 1.44, 0.84 1.28 C0.97 1.12, 1.12 0.97, 1.28 0.84 C1.44 0.7, 1.61 0.58, 1.79 0.48 C1.97 0.38, 2.16 0.29, 2.35 0.22 C2.55 0.14, 2.75 0.09, 2.96 0.05 C3.16 0.02, 3.37 0, 3.58 0 C3.78 0, 3.99 0.02, 4.2 0.05 C4.4 0.09, 4.6 0.14, 4.8 0.22 C4.99 0.29, 5.19 0.38, 5.36 0.48 C5.54 0.58, 5.72 0.7, 5.87 0.84 C6.03 0.97, 6.18 1.12, 6.32 1.28 C6.45 1.44, 6.57 1.61, 6.67 1.79 C6.78 1.97, 6.87 2.16, 6.94 2.35 C7.01 2.55, 7.06 2.75, 7.1 2.96 C7.13 3.16, 7.14 3.47, 7.15 3.58 C7.16 3.68, 7.16 3.47, 7.15 3.58" stroke="none" stroke-width="0" fill="#1e1e1e"></path><path d="M7.15 3.58 C7.15 3.78, 7.13 3.99, 7.1 4.2 C7.06 4.4, 7.01 4.6, 6.94 4.8 C6.87 4.99, 6.78 5.19, 6.67 5.36 C6.57 5.54, 6.45 5.72, 6.32 5.87 C6.18 6.03, 6.03 6.18, 5.87 6.32 C5.72 6.45, 5.54 6.57, 5.36 6.67 C5.19 6.78, 4.99 6.87, 4.8 6.94 C4.6 7.01, 4.4 7.06, 4.2 7.1 C3.99 7.13, 3.78 7.15, 3.58 7.15 C3.37 7.15, 3.16 7.13, 2.96 7.1 C2.75 7.06, 2.55 7.01, 2.35 6.94 C2.16 6.87, 1.97 6.78, 1.79 6.67 C1.61 6.57, 1.44 6.45, 1.28 6.32 C1.12 6.18, 0.97 6.03, 0.84 5.87 C0.7 5.72, 0.58 5.54, 0.48 5.36 C0.38 5.19, 0.29 4.99, 0.22 4.8 C0.14 4.6, 0.09 4.4, 0.05 4.2 C0.02 3.99, 0 3.78, 0 3.58 C0 3.37, 0.02 3.16, 0.05 2.96 C0.09 2.75, 0.14 2.55, 0.22 2.35 C0.29 2.16, 0.38 1.97, 0.48 1.79 C0.58 1.61, 0.7 1.44, 0.84 1.28 C0.97 1.12, 1.12 0.97, 1.28 0.84 C1.44 0.7, 1.61 0.58, 1.79 0.48 C1.97 0.38, 2.16 0.29, 2.35 0.22 C2.55 0.14, 2.75 0.09, 2.96 0.05 C3.16 0.02, 3.37 0, 3.58 0 C3.78 0, 3.99 0.02, 4.2 0.05 C4.4 0.09, 4.6 0.14, 4.8 0.22 C4.99 0.29, 5.19 0.38, 5.36 0.48 C5.54 0.58, 5.72 0.7, 5.87 0.84 C6.03 0.97, 6.18 1.12, 6.32 1.28 C6.45 1.44, 6.57 1.61, 6.67 1.79 C6.78 1.97, 6.87 2.16, 6.94 2.35 C7.01 2.55, 7.06 2.75, 7.1 2.96 C7.13 3.16, 7.14 3.47, 7.15 3.58 C7.16 3.68, 7.16 3.47, 7.15 3.58" stroke="#000000" stroke-width="1" fill="none"></path></g></svg>
